<svg width="64" height="64" viewBox="0 0 64 64" fill="none" xmlns="http://www.w3.org/2000/svg">
<g clip-path="url(#clip0_5_99)">
<path d="M8 8C5.87827 8 3.84344 8.84285 2.34315 10.3431C0.842855 11.8434 0 13.8783 0 16L0 48.04C0.0105741 50.1548 0.858095 52.1794 2.35724 53.671C3.85639 55.1627 5.88518 56 8 56H30C30.5304 56 31.0391 55.7893 31.4142 55.4142C31.7893 55.0391 32 54.5304 32 54C32 53.4696 31.7893 52.9609 31.4142 52.5858C31.0391 52.2107 30.5304 52 30 52H8C7.11951 52.0001 6.26358 51.7097 5.56496 51.1738C4.86633 50.6379 4.36405 49.8864 4.136 49.036L26.696 35.152L32 38.332L60 21.532V34C60 34.5304 60.2107 35.0391 60.5858 35.4142C60.9609 35.7893 61.4696 36 62 36C62.5304 36 63.0391 35.7893 63.4142 35.4142C63.7893 35.0391 64 34.5304 64 34V16C64 13.8783 63.1571 11.8434 61.6569 10.3431C60.1566 8.84285 58.1217 8 56 8H8ZM22.832 32.832L4 44.42V21.532L22.832 32.832ZM4 16.868V16C4 14.9391 4.42143 13.9217 5.17157 13.1716C5.92172 12.4214 6.93913 12 8 12H56C57.0609 12 58.0783 12.4214 58.8284 13.1716C59.5786 13.9217 60 14.9391 60 16V16.868L32 33.668L4 16.868Z" fill="#74DD47"/>
<path d="M64 50C64 53.713 62.525 57.274 59.8995 59.8995C57.274 62.525 53.713 64 50 64C46.287 64 42.726 62.525 40.1005 59.8995C37.475 57.274 36 53.713 36 50C36 46.287 37.475 42.726 40.1005 40.1005C42.726 37.475 46.287 36 50 36C53.713 36 57.274 37.475 59.8995 40.1005C62.525 42.726 64 46.287 64 50ZM56.028 43.284C55.8027 43.149 55.5529 43.0596 55.2931 43.0211C55.0332 42.9826 54.7683 42.9957 54.5135 43.0596C54.2587 43.1234 54.0189 43.2369 53.808 43.3935C53.597 43.55 53.419 43.7466 53.284 43.972L48.604 51.772L46.416 49.584C46.0405 49.2085 45.5311 48.9975 45 48.9975C44.4689 48.9975 43.9595 49.2085 43.584 49.584C43.2085 49.9595 42.9975 50.4689 42.9975 51C42.9975 51.5311 43.2085 52.0405 43.584 52.416L46.68 55.508C47.0022 55.8309 47.3939 56.076 47.8251 56.2248C48.2564 56.3735 48.7158 56.422 49.1686 56.3664C49.6214 56.3109 50.0555 56.1528 50.438 55.9043C50.8206 55.6557 51.1413 55.3232 51.376 54.932L56.716 46.028C56.851 45.8027 56.9404 45.5529 56.9789 45.2931C57.0174 45.0332 57.0043 44.7683 56.9404 44.5135C56.8766 44.2587 56.7631 44.0189 56.6065 43.808C56.45 43.597 56.2534 43.419 56.028 43.284Z" fill="#74DD47"/>
</g>
<defs>
<clipPath id="clip0_5_99">
<rect width="64" height="64" fill="white"/>
</clipPath>
</defs>
</svg>
