<svg width="66" height="67" viewBox="0 0 66 67" fill="none" xmlns="http://www.w3.org/2000/svg">
<g clip-path="url(#clip0_5_59)">
<path fill-rule="evenodd" clip-rule="evenodd" d="M22.6291 0.843407C18.906 0.843407 15.3356 2.30815 12.703 4.91542L0 17.4963V23.255C0 27.3236 1.76458 30.9839 4.57712 33.5263C1.76458 36.0687 0 39.729 0 43.7976V49.5563L12.703 62.1373C15.3356 64.7446 18.906 66.2092 22.6291 66.2092C26.7371 66.2092 30.4329 64.4617 33 61.6761C35.5671 64.4617 39.2629 66.2092 43.3709 66.2092C47.094 66.2092 50.6644 64.7446 53.297 62.1373L66 49.5563V43.7976C66 39.729 64.2355 36.0687 61.4229 33.5263C64.2355 30.9839 66 27.3236 66 23.255V17.4963L53.297 4.91542C50.6644 2.30815 47.094 0.843407 43.3709 0.843407C39.2629 0.843407 35.5671 2.59102 33 5.37654C30.4329 2.59102 26.7371 0.843407 22.6291 0.843407ZM42.502 33.5263C42.3438 33.3833 42.1885 33.2364 42.0364 33.0857L33 24.1362L23.9636 33.0857C23.8115 33.2364 23.6562 33.3833 23.498 33.5263C23.6562 33.6693 23.8115 33.8162 23.9636 33.9669L33 42.9164L42.0364 33.9669C42.1885 33.8162 42.3438 33.6693 42.502 33.5263ZM36.6666 49.5563V52.3066C36.6666 55.9736 39.6683 58.9464 43.3709 58.9464C45.1489 58.9464 46.8542 58.2469 48.1115 57.0016L58.6667 46.5478V43.7976C58.6667 40.1306 55.6651 37.1577 51.9625 37.1577C50.1844 37.1577 48.4791 37.8573 47.2218 39.1025L36.6666 49.5563ZM29.3334 49.5563L18.7782 39.1025C17.5209 37.8573 15.8156 37.1577 14.0376 37.1577C10.3349 37.1577 7.33333 40.1306 7.33333 43.7976V46.5478L17.8885 57.0016C19.1458 58.2469 20.851 58.9464 22.6291 58.9464C26.3317 58.9464 29.3334 55.9736 29.3334 52.3066V49.5563ZM29.3334 14.7461V17.4963L18.7782 27.9501C17.5209 29.1953 15.8156 29.8949 14.0376 29.8949C10.3349 29.8949 7.33333 26.9221 7.33333 23.255V20.5048L17.8885 10.051C19.1458 8.80583 20.851 8.10628 22.6291 8.10628C26.3317 8.10628 29.3334 11.079 29.3334 14.7461ZM47.2218 27.9501L36.6666 17.4963V14.7461C36.6666 11.079 39.6683 8.10628 43.3709 8.10628C45.1489 8.10628 46.8542 8.80583 48.1115 10.051L58.6667 20.5048V23.255C58.6667 26.9221 55.6651 29.8949 51.9625 29.8949C50.1844 29.8949 48.4791 29.1953 47.2218 27.9501Z" fill="#FF630B"/>
</g>
<defs>
<clipPath id="clip0_5_59">
<rect width="66" height="67" fill="white"/>
</clipPath>
</defs>
</svg>
